<svg xmlns="http://www.w3.org/2000/svg" viewBox="0 0 44 44"><rect width="44" height="44" fill="#252727" rx="22"/><path fill="#fff" d="M22 9a13 13 0 0 0-4.1 25.34c.64.12.85-.29.85-.63V31.3c-3.62.79-4.37-1.53-4.37-1.53-.6-1.5-1.44-1.9-1.44-1.9-1.18-.81.09-.8.09-.8 1.3.1 1.99 1.34 1.99 1.34 1.16 2 3.04 1.42 3.78 1.08.12-.83.45-1.4.83-1.73-2.89-.33-5.93-1.45-5.93-6.43 0-1.42.51-2.58 1.34-3.49a4.68 4.68 0 0 1 .13-3.44s1.1-.35 3.58 1.33a12.47 12.47 0 0 1 6.5 0c2.49-1.68 3.58-1.33 3.58-1.33.7 1.8.26 3.12.13 3.44a5.02 5.02 0 0 1 1.33 3.5c0 4.98-3.04 6.08-5.93 6.4.46.4.89 1.2.89 2.41v3.57c0 .35.2.75.87.62A13 13 0 0 0 22 9Z"/></svg>