<svg xmlns="http://www.w3.org/2000/svg" viewBox="0 0 86 31"><path fill="#fff" d="M3.01 13a2.61 2.61 0 0 1-2.3-1.31c-.24-.41-.36-.86-.36-1.35V2.7A2.74 2.74 0 0 1 1.66.4c.41-.24.86-.36 1.35-.36h10.26v2.8H3.73c-.19 0-.34.06-.45.15-.1.1-.14.25-.14.45V9.6c0 .19.05.34.14.45.11.1.26.14.45.14h9.54V13H3.01Zm14.4 0a2.7 2.7 0 0 1-2.66-2.66V2.7A2.7 2.7 0 0 1 17.41.04h7.64a2.7 2.7 0 0 1 2.29 1.33c.25.4.37.84.37 1.33v7.64A2.7 2.7 0 0 1 25.05 13h-7.63Zm.13-2.8h7.35V2.84h-7.35v7.34ZM29.35 13V.02h2.8V10.2H42.3V13H29.35Zm16.28 0a2.7 2.7 0 0 1-2.66-2.66V2.7A2.7 2.7 0 0 1 45.63.04h7.63a2.7 2.7 0 0 1 2.29 1.33c.25.4.38.84.38 1.33v7.64c0 .48-.13.92-.38 1.33A2.7 2.7 0 0 1 53.26 13h-7.63Zm.13-2.8h7.34V2.84h-7.34v7.34ZM57.55 13V.04h2.88l7.25 8.64V.04h2.83V13h-2.88l-7.3-8.68V13h-2.78Zm19.44 0V8.16l-6-8.12h3.34l4.06 5.11L82.44.04h3.37L79.8 8.18V13h-2.81ZM15.82 31l-4.71-12.96h2.97l2.82 7.72 2.83-7.72h2.57l2.85 7.72 2.82-7.72h2.95L26.21 31h-2.14L21 22.67 17.96 31h-2.14Zm15.66 0V20.7a2.7 2.7 0 0 1 2.66-2.66h7.62a2.7 2.7 0 0 1 2.3 1.33c.25.4.38.84.38 1.33V31h-2.83v-4.18h-7.34V31h-2.79Zm2.8-6.98h7.33v-3.17h-7.34v3.17ZM56.18 31l-3.76-4.48h3.66l2.98 3.53V31H56.2Zm-10.06 0V18.06h10.28a2.7 2.7 0 0 1 2.3 1.33c.26.4.38.85.38 1.33v3.35c0 .48-.12.92-.38 1.33a2.7 2.7 0 0 1-2.3 1.33l-7.49.02V31h-2.79Zm2.8-7.07h7.34v-3.08h-7.35v3.08ZM63.24 31a2.7 2.7 0 0 1-2.66-2.66v-1.21h2.79v1.06h7.34v-2.27h-7.47a2.74 2.74 0 0 1-2.3-1.31c-.24-.4-.36-.86-.36-1.35V20.7a2.7 2.7 0 0 1 2.66-2.66h7.64a2.7 2.7 0 0 1 2.29 1.33c.24.4.37.84.37 1.33v1.21h-2.83v-1.06h-7.34v2.27h7.5a2.7 2.7 0 0 1 2.29 1.33c.25.4.38.84.38 1.33v2.56c0 .48-.13.92-.38 1.33A2.7 2.7 0 0 1 70.9 31h-7.64Z"/></svg>