<svg xmlns="http://www.w3.org/2000/svg" viewBox="0 0 44 44"><rect width="44" height="44" fill="#252727" rx="22"/><path fill="#fff" d="M36.28 21.54c0-1.86-2.34-3.63-5.92-4.73.83-3.65.46-6.55-1.16-7.48-.37-.22-.8-.32-1.28-.32v1.28c.26 0 .47.05.65.15.78.44 1.12 2.15.86 4.34-.07.54-.17 1.1-.3 1.69a27.8 27.8 0 0 0-3.64-.63 27.97 27.97 0 0 0-2.39-2.87c1.87-1.74 3.63-2.69 4.82-2.69V9c-1.58 0-3.64 1.13-5.73 3.08-2.09-1.94-4.16-3.06-5.73-3.06v1.28c1.18 0 2.95.95 4.82 2.68-.8.84-1.61 1.8-2.37 2.86-1.3.14-2.53.35-3.65.63-.14-.57-.23-1.13-.3-1.66-.27-2.2.06-3.9.84-4.35.17-.1.4-.15.66-.15V9.03c-.49 0-.92.1-1.3.32-1.61.93-1.98 3.83-1.14 7.47-3.57 1.1-5.9 2.86-5.9 4.72 0 1.87 2.34 3.64 5.92 4.73-.83 3.65-.46 6.56 1.16 7.49.37.22.8.32 1.3.32 1.57 0 3.63-1.13 5.72-3.08 2.1 1.94 4.16 3.06 5.74 3.06.48 0 .92-.1 1.3-.33 1.6-.93 1.97-3.82 1.14-7.46 3.55-1.1 5.88-2.87 5.88-4.73Zm-7.47-3.83c-.22.74-.48 1.5-.78 2.27a27.24 27.24 0 0 0-1.58-2.72c.82.12 1.6.27 2.36.45Zm-2.63 6.12c-.45.77-.9 1.5-1.38 2.19a29.87 29.87 0 0 1-5.18 0 31.6 31.6 0 0 1-2.58-4.46 29.85 29.85 0 0 1 2.57-4.48 29.87 29.87 0 0 1 5.17 0 31.6 31.6 0 0 1 2.59 4.46c-.37.77-.76 1.54-1.2 2.29Zm1.85-.75c.3.75.57 1.51.8 2.29-.76.18-1.55.33-2.37.45a31.69 31.69 0 0 0 1.57-2.74Zm-5.82 6.13a23.7 23.7 0 0 1-1.6-1.84 35.47 35.47 0 0 0 3.18 0c-.5.64-1.02 1.25-1.58 1.84Zm-4.27-3.39c-.81-.12-1.6-.27-2.35-.45.21-.74.48-1.5.77-2.27a27.3 27.3 0 0 0 1.58 2.72Zm4.24-11.94c.54.55 1.07 1.16 1.6 1.84a35.46 35.46 0 0 0-3.17 0c.49-.64 1.02-1.26 1.57-1.84Zm-4.24 3.38A31.77 31.77 0 0 0 16.36 20c-.3-.75-.56-1.51-.79-2.29a27.9 27.9 0 0 1 2.37-.45Zm-5.2 7.19c-2.03-.87-3.34-2-3.34-2.9 0-.9 1.31-2.05 3.34-2.91.5-.21 1.04-.4 1.6-.58.32 1.12.75 2.3 1.28 3.5a27.2 27.2 0 0 0-1.27 3.47c-.57-.18-1.1-.37-1.6-.58Zm3.1 8.2c-.79-.45-1.13-2.15-.86-4.35.06-.54.16-1.1.29-1.68 1.12.27 2.35.48 3.64.62a28 28 0 0 0 2.39 2.87c-1.87 1.74-3.63 2.7-4.82 2.7-.26-.01-.48-.06-.65-.16Zm13.6-4.37c.27 2.19-.06 3.9-.83 4.35-.18.1-.4.15-.66.15-1.2 0-2.95-.95-4.82-2.68.8-.84 1.6-1.8 2.37-2.86 1.3-.14 2.52-.35 3.65-.63.13.58.23 1.13.3 1.67Zm2.21-3.83c-.49.21-1.03.4-1.59.58-.32-1.13-.75-2.3-1.29-3.5.53-1.2.96-2.36 1.28-3.48.56.18 1.1.38 1.6.59 2.04.86 3.36 2 3.36 2.9-.01.9-1.32 2.05-3.36 2.9Z"/><path fill="#fff" d="M22.2 24.17a2.62 2.62 0 1 0 0-5.25 2.62 2.62 0 0 0 0 5.25Z"/></svg>