<svg width="1920" height="1080" viewBox="0 0 1920 1080" fill="none" xmlns="http://www.w3.org/2000/svg">
<g clip-path="url(#clip0_1626_430)">
<rect width="1920" height="1080" fill="#040607"/>
<mask id="path-1-inside-1_1626_430" fill="white">
<path d="M1719.11 -901.57L2344.62 1355.58L-311.492 2091.65L-937.001 -165.5L1719.11 -901.57Z"/>
</mask>
<path d="M1719.11 -901.57L2344.62 1355.58L-311.492 2091.65L-937.001 -165.5L1719.11 -901.57Z" fill="#040607"/>
<path d="M1719.11 -901.57L2344.62 1355.58L-311.492 2091.65L-937.001 -165.5L1719.11 -901.57Z" fill="url(#paint0_radial_1626_430)" fill-opacity="0.4"/>
<path d="M1719.11 -901.57L2344.62 1355.58L-311.492 2091.65L-937.001 -165.5L1719.11 -901.57Z" fill="url(#paint1_radial_1626_430)" fill-opacity="0.2"/>
<path d="M1719.11 -901.57L2344.62 1355.58L-311.492 2091.65L-937.001 -165.5L1719.11 -901.57Z" fill="url(#paint2_radial_1626_430)" fill-opacity="0.1"/>
<path d="M1719.11 -901.57L2344.62 1355.58L-311.492 2091.65L-937.001 -165.5L1719.11 -901.57Z" fill="url(#paint3_linear_1626_430)"/>
<path d="M1718.15 -901.303L2343.66 1355.85L2345.58 1355.32L1720.08 -901.837L1718.15 -901.303Z" fill="url(#paint4_linear_1626_430)" mask="url(#path-1-inside-1_1626_430)"/>
<path d="M1718.15 -901.303L2343.66 1355.85L2345.58 1355.32L1720.08 -901.837L1718.15 -901.303Z" fill="url(#paint5_radial_1626_430)" fill-opacity="0.8" mask="url(#path-1-inside-1_1626_430)"/>
<path d="M1718.15 -901.303L2343.66 1355.85L2345.58 1355.32L1720.08 -901.837L1718.15 -901.303Z" fill="url(#paint6_radial_1626_430)" fill-opacity="0.8" mask="url(#path-1-inside-1_1626_430)"/>
</g>
<defs>
<radialGradient id="paint0_radial_1626_430" cx="0" cy="0" r="1" gradientUnits="userSpaceOnUse" gradientTransform="translate(2031.87 227.007) rotate(164.511) scale(2036.31 627.81)">
<stop stop-color="#27E4E4"/>
<stop offset="1" stop-color="#27E4E4" stop-opacity="0"/>
</radialGradient>
<radialGradient id="paint1_radial_1626_430" cx="0" cy="0" r="1" gradientUnits="userSpaceOnUse" gradientTransform="translate(2031.87 227.007) rotate(164.511) scale(554.272 235.379)">
<stop stop-color="#27FB56"/>
<stop offset="1" stop-color="#27FB56" stop-opacity="0"/>
</radialGradient>
<radialGradient id="paint2_radial_1626_430" cx="0" cy="0" r="1" gradientUnits="userSpaceOnUse" gradientTransform="translate(2031.87 227.007) rotate(164.511) scale(1758.63 506.509)">
<stop stop-color="white"/>
<stop offset="1" stop-color="white" stop-opacity="0"/>
</radialGradient>
<linearGradient id="paint3_linear_1626_430" x1="897.038" y1="56.097" x2="1152.12" y2="976.572" gradientUnits="userSpaceOnUse">
<stop stop-color="#040607"/>
<stop offset="0.5" stop-color="#040607" stop-opacity="0"/>
<stop offset="1" stop-color="#040607"/>
</linearGradient>
<linearGradient id="paint4_linear_1626_430" x1="1921.95" y1="-169.626" x2="2146.48" y2="640.601" gradientUnits="userSpaceOnUse">
<stop stop-color="white" stop-opacity="0"/>
<stop offset="0.5" stop-color="white" stop-opacity="0.61"/>
<stop offset="1" stop-color="white" stop-opacity="0"/>
</linearGradient>
<radialGradient id="paint5_radial_1626_430" cx="0" cy="0" r="1" gradientUnits="userSpaceOnUse" gradientTransform="translate(2031.87 227.007) rotate(164.511) scale(349.228 296.773)">
<stop stop-color="#27FB56"/>
<stop offset="1" stop-opacity="0"/>
</radialGradient>
<radialGradient id="paint6_radial_1626_430" cx="0" cy="0" r="1" gradientUnits="userSpaceOnUse" gradientTransform="translate(2026.8 208.741) rotate(164.511) scale(166.585 99.8249)">
<stop stop-color="white"/>
<stop offset="1" stop-color="white" stop-opacity="0"/>
</radialGradient>
<clipPath id="clip0_1626_430">
<rect width="1920" height="1080" fill="white"/>
</clipPath>
</defs>
</svg>
