<svg xmlns="http://www.w3.org/2000/svg" viewBox="0 0 44 44"><rect width="44" height="44" fill="#252727" rx="22"/><mask id="a" width="20" height="24" x="11" y="10" maskUnits="userSpaceOnUse" style="mask-type:luminance"><path fill="#fff" d="m30.38 21.07-6.46 6.47L30.38 34H23l-6.46-6.46L23 21.07h7.38ZM23 10 11 22l3.7 3.7L30.37 10H23Z"/></mask><g mask="url(#a)"><path fill="#fff" d="m16.54 27.54 3.69 3.69 10.15-10.16H23l-6.46 6.47Z"/></g><mask id="b" width="20" height="24" x="11" y="10" maskUnits="userSpaceOnUse" style="mask-type:luminance"><path fill="#fff" d="m30.38 21.07-6.46 6.47L30.38 34H23l-6.46-6.46L23 21.07h7.38ZM23 10 11 22l3.7 3.7L30.37 10H23Z"/></mask><g mask="url(#b)"><path fill="#fff" d="M23 10h7.38L14.7 25.7 11 22l12-12Z"/></g><mask id="c" width="20" height="24" x="11" y="10" maskUnits="userSpaceOnUse" style="mask-type:luminance"><path fill="#fff" d="m30.38 21.07-6.46 6.47L30.38 34H23l-6.46-6.46L23 21.07h7.38ZM23 10 11 22l3.7 3.7L30.37 10H23Z"/></mask><g mask="url(#c)"><path fill="#898F8F" d="M20.23 31.23 23 34h7.38l-6.46-6.46-3.7 3.69Z"/></g><mask id="d" width="20" height="24" x="11" y="10" maskUnits="userSpaceOnUse" style="mask-type:luminance"><path fill="#fff" d="m30.38 21.07-6.46 6.47L30.38 34H23l-6.46-6.46L23 21.07h7.38ZM23 10 11 22l3.7 3.7L30.37 10H23Z"/></mask><g mask="url(#d)"><path fill="#727878" d="m16.54 27.54 3.7-3.7 3.68 3.7-3.69 3.69-3.7-3.7Z"/></g><path fill="url(#e)" d="m30.38 21.07-6.46 6.47L30.38 34H23l-6.46-6.46L23 21.07h7.38ZM23 10 11 22l3.7 3.7L30.37 10H23Z"/><defs><radialGradient id="e" cx="0" cy="0" r="1" gradientTransform="matrix(29.36 0 0 29.36 11.54 11.64)" gradientUnits="userSpaceOnUse"><stop stop-color="#fff" stop-opacity=".1"/><stop offset="1" stop-color="#fff" stop-opacity="0"/></radialGradient></defs></svg>